AmstelvarAlpha-GradeMax.ufo
<glyph name="quotesingle" format="1">
  <advance width="584"/>
  <unicode hex="0027"/>
  <outline>
    <contour>
      <point x="352" y="807" type="line"/>
      <point x="168" y="1337" type="line"/>
      <point x="168" y="1416"/>
      <point x="269" y="1558"/>
      <point x="379" y="1558" type="qcurve" smooth="yes"/>
      <point x="489" y="1558"/>
      <point x="590" y="1416"/>
      <point x="590" y="1337" type="qcurve"/>
      <point x="404" y="807" type="line"/>
    </contour>
  </outline>
</glyph>
<glyph name="parenleft" format="1">
  <advance width="598"/>
  <unicode hex="0028"/>
  <outline>
    <contour>
      <point x="68" y="653" type="qcurve" smooth="yes"/>
      <point x="68" y="929"/>
      <point x="363" y="1393"/>
      <point x="576" y="1525" type="qcurve"/>
      <point x="684" y="1442" type="line"/>
      <point x="628" y="1306"/>
      <point x="562" y="894"/>
      <point x="562" y="654" type="qcurve" smooth="yes"/>
      <point x="562" y="412"/>
      <point x="623" y="19"/>
      <point x="683" y="-138" type="qcurve"/>
      <point x="576" y="-218" type="line"/>
      <point x="360" y="-63"/>
      <point x="68" y="371"/>
    </contour>
  </outline>
</glyph>
<glyph name="parenright" format="1">
  <advance width="598"/>
  <unicode hex="0029"/>
  <outline>
    <contour>
      <point x="611.9090909090909" y="653" type="qcurve" smooth="yes"/>
      <point x="611.9090909090909" y="371"/>
      <point x="319.90909090909093" y="-63"/>
      <point x="103.9090909090909" y="-218" type="qcurve"/>
      <point x="-3.09090909090909" y="-138" type="line"/>
      <point x="56.90909090909091" y="19"/>
      <point x="117.9090909090909" y="412"/>
      <point x="117.9090909090909" y="654" type="qcurve" smooth="yes"/>
      <point x="117.9090909090909" y="894"/>
      <point x="52.90909090909091" y="1306"/>
      <point x="-4.09090909090909" y="1442" type="qcurve"/>
      <point x="103.9090909090909" y="1525" type="line"/>
      <point x="316.90909090909093" y="1393"/>
      <point x="611.9090909090909" y="929"/>
    </contour>
  </outline>
</glyph>
<glyph name="asterisk" format="1">
  <advance width="858"/>
  <unicode hex="002A"/>
  <outline>
    <contour>
      <point x="428.85964912280707" y="625" type="qcurve" smooth="yes"/>
      <point x="365.85964912280707" y="625"/>
      <point x="296.85964912280707" y="705"/>
      <point x="310.85964912280707" y="766" type="qcurve" smooth="yes"/>
      <point x="355.85964912280707" y="939" type="line"/>
      <point x="343.85964912280707" y="948" type="line"/>
      <point x="210.85964912280707" y="822" type="line" smooth="yes"/>
      <point x="170.85964912280707" y="787"/>
      <point x="65.85964912280706" y="796"/>
      <point x="32.859649122807056" y="855" type="qcurve" smooth="yes"/>
      <point x="-0.14035087719294026" y="912"/>
      <point x="47.859649122807056" y="1012"/>
      <point x="98.85964912280706" y="1028" type="qcurve" smooth="yes"/>
      <point x="266.85964912280707" y="1075" type="line"/>
      <point x="264.85964912280707" y="1090" type="line"/>
      <point x="98.85964912280706" y="1140" type="line" smooth="yes"/>
      <point x="48.859649122807056" y="1157"/>
      <point x="-0.14035087719294026" y="1256"/>
      <point x="32.859649122807056" y="1314" type="qcurve" smooth="yes"/>
      <point x="65.85964912280706" y="1372"/>
      <point x="171.85964912280707" y="1383"/>
      <point x="210.85964912280707" y="1347" type="qcurve" smooth="yes"/>
      <point x="342.85964912280707" y="1217" type="line"/>
      <point x="353.85964912280707" y="1226" type="line"/>
      <point x="310.85964912280707" y="1402" type="line" smooth="yes"/>
      <point x="296.85964912280707" y="1466"/>
      <point x="367.85964912280707" y="1544"/>
      <point x="428.85964912280707" y="1544" type="qcurve" smooth="yes"/>
      <point x="491.85964912280707" y="1544"/>
      <point x="560.859649122807" y="1464"/>
      <point x="546.859649122807" y="1402" type="qcurve" smooth="yes"/>
      <point x="500.85964912280707" y="1230" type="line"/>
      <point x="514.859649122807" y="1221" type="line"/>
      <point x="645.859649122807" y="1347" type="line" smooth="yes"/>
      <point x="685.859649122807" y="1382"/>
      <point x="791.859649122807" y="1372"/>
      <point x="824.859649122807" y="1314" type="qcurve" smooth="yes"/>
      <point x="857.859649122807" y="1256"/>
      <point x="809.859649122807" y="1156"/>
      <point x="758.859649122807" y="1141" type="qcurve" smooth="yes"/>
      <point x="589.859649122807" y="1093" type="line"/>
      <point x="591.859649122807" y="1079" type="line"/>
      <point x="758.859649122807" y="1028" type="line" smooth="yes"/>
      <point x="808.859649122807" y="1012"/>
      <point x="857.859649122807" y="912"/>
      <point x="824.859649122807" y="854" type="qcurve" smooth="yes"/>
      <point x="791.859649122807" y="796"/>
      <point x="685.859649122807" y="786"/>
      <point x="645.859649122807" y="822" type="qcurve" smooth="yes"/>
      <point x="518.859649122807" y="948" type="line"/>
      <point x="504.85964912280707" y="939" type="line"/>
      <point x="548.859649122807" y="766" type="line" smooth="yes"/>
      <point x="561.859649122807" y="705"/>
      <point x="495.85964912280707" y="625"/>
    </contour>
  </outline>
</glyph>
<glyph name="plus" format="1">
  <advance width="1024"/>
  <unicode hex="002B"/>
  <outline>
    <contour>
      <point x="80" y="477" type="line"/>
      <point x="80" y="787" type="line"/>
      <point x="988" y="787" type="line"/>
      <point x="988" y="477" type="line"/>
    </contour>
    <contour>
      <point x="343" y="212" type="line"/>
      <point x="343" y="1052" type="line"/>
      <point x="725" y="1052" type="line"/>
      <point x="725" y="212" type="line"/>
    </contour>
  </outline>
</glyph>
<glyph name="comma" format="1">
  <advance width="584"/>
  <unicode hex="002C"/>
  <outline>
    <contour>
      <point x="62.30555555555556" y="-252" type="line"/>
      <point x="128.30555555555554" y="-215"/>
      <point x="273.30555555555554" y="-87"/>
      <point x="313.30555555555554" y="9" type="qcurve"/>
      <point x="176.30555555555554" y="9"/>
      <point x="59.30555555555556" y="128"/>
      <point x="59.30555555555556" y="214" type="qcurve" smooth="yes"/>
      <point x="59.30555555555556" y="299"/>
      <point x="188.30555555555554" y="425"/>
      <point x="290.30555555555554" y="425" type="qcurve" smooth="yes"/>
      <point x="389.30555555555554" y="425"/>
      <point x="521.3055555555555" y="309"/>
      <point x="521.3055555555555" y="191" type="qcurve" smooth="yes"/>
      <point x="521.3055555555555" y="38"/>
      <point x="276.30555555555554" y="-264"/>
      <point x="122.30555555555556" y="-326" type="qcurve"/>
    </contour>
  </outline>
</glyph>
<glyph name="zero" format="1">
  <advance width="1176"/>
  <unicode hex="0030"/>
  <outline>
    <contour>
      <point x="15" y="757" type="qcurve" smooth="yes"/>
      <point x="15" y="1171"/>
      <point x="336.0" y="1520"/>
      <point x="590.0" y="1520" type="qcurve" smooth="yes"/>
      <point x="844.0" y="1520"/>
      <point x="1161" y="1144"/>
      <point x="1161" y="754" type="qcurve" smooth="yes"/>
      <point x="1161" y="364"/>
      <point x="849.0" y="-22"/>
      <point x="595.0" y="-22" type="qcurve" smooth="yes"/>
      <point x="347.0" y="-22"/>
      <point x="15" y="343"/>
    </contour>
    <contour>
      <point x="523" y="758" type="qcurve" smooth="yes"/>
      <point x="524" y="255"/>
      <point x="544.0" y="101"/>
      <point x="588.0" y="101" type="qcurve" smooth="yes"/>
      <point x="633.0" y="101"/>
      <point x="652" y="234"/>
      <point x="652" y="754" type="qcurve" smooth="yes"/>
      <point x="652" y="1263"/>
      <point x="626.0" y="1389"/>
      <point x="587.0" y="1389" type="qcurve" smooth="yes"/>
      <point x="547.0" y="1389"/>
      <point x="523" y="1267"/>
    </contour>
  </outline>
</glyph>
<glyph name="three" format="1">
  <advance width="953"/>
  <unicode hex="0033"/>
  <outline>
    <contour>
      <point x="4" y="76" type="qcurve"/>
      <point x="4" y="188" type="line"/>
      <point x="33" y="160"/>
      <point x="140" y="113"/>
      <point x="213" y="113" type="qcurve" smooth="yes"/>
      <point x="289" y="113"/>
      <point x="364" y="225"/>
      <point x="364" y="415" type="qcurve" smooth="yes"/>
      <point x="364" y="588"/>
      <point x="265" y="728"/>
      <point x="183" y="728" type="qcurve" smooth="yes"/>
      <point x="112" y="728" type="line"/>
      <point x="103" y="829" type="line"/>
      <point x="189" y="833" type="line" smooth="yes"/>
      <point x="269" y="838"/>
      <point x="344" y="979"/>
      <point x="344" y="1152" type="qcurve" smooth="yes"/>
      <point x="344" y="1306"/>
      <point x="264" y="1395"/>
      <point x="208" y="1395" type="qcurve" smooth="yes"/>
      <point x="156" y="1395"/>
      <point x="71" y="1362"/>
      <point x="32" y="1332" type="qcurve"/>
      <point x="32" y="1427" type="line"/>
      <point x="89" y="1471"/>
      <point x="291" y="1520"/>
      <point x="479" y="1520" type="qcurve" smooth="yes"/>
      <point x="696" y="1520"/>
      <point x="899" y="1346"/>
      <point x="899" y="1183" type="qcurve" smooth="yes"/>
      <point x="899" y="1024"/>
      <point x="735" y="841"/>
      <point x="553" y="815" type="qcurve"/>
      <point x="553" y="808" type="line"/>
      <point x="724" y="795"/>
      <point x="941" y="608"/>
      <point x="941" y="423" type="qcurve" smooth="yes"/>
      <point x="941" y="232"/>
      <point x="701" y="-21"/>
      <point x="424" y="-21" type="qcurve" smooth="yes"/>
      <point x="247" y="-21"/>
      <point x="45" y="38"/>
    </contour>
  </outline>
</glyph>
<glyph name="six" format="1">
  <advance width="1176"/>
  <unicode hex="0036"/>
  <outline>
    <contour>
      <point x="74" y="666" type="qcurve" smooth="yes"/>
      <point x="74" y="1121"/>
      <point x="477" y="1537"/>
      <point x="1015" y="1538" type="qcurve"/>
      <point x="1015" y="1414" type="line"/>
      <point x="780" y="1401"/>
      <point x="572" y="1118"/>
      <point x="572" y="668" type="qcurve" smooth="yes"/>
      <point x="572" y="190"/>
      <point x="620" y="101"/>
      <point x="665" y="101" type="qcurve" smooth="yes"/>
      <point x="705" y="101"/>
      <point x="749" y="168"/>
      <point x="749" y="464" type="qcurve" smooth="yes"/>
      <point x="749" y="747"/>
      <point x="707" y="832"/>
      <point x="658" y="832" type="qcurve" smooth="yes"/>
      <point x="639" y="832"/>
      <point x="606" y="825"/>
      <point x="597" y="822" type="qcurve"/>
      <point x="593" y="894" type="line"/>
      <point x="611" y="921"/>
      <point x="727" y="968"/>
      <point x="808" y="968" type="qcurve" smooth="yes"/>
      <point x="1011" y="968"/>
      <point x="1217" y="735"/>
      <point x="1217" y="495" type="qcurve" smooth="yes"/>
      <point x="1217" y="242"/>
      <point x="962" y="-22"/>
      <point x="673" y="-22" type="qcurve" smooth="yes"/>
      <point x="384" y="-22"/>
      <point x="74" y="277"/>
    </contour>
  </outline>
</glyph>
<glyph name="seven" format="1">
  <advance width="965"/>
  <unicode hex="0037"/>
  <outline>
    <contour>
      <point x="24" y="1010" type="line"/>
      <point x="24" y="1500" type="line"/>
      <point x="975" y="1500" type="line"/>
      <point x="975" y="1283" type="line"/>
      <point x="719" y="657" type="line"/>
      <point x="575" y="-15" type="line"/>
      <point x="248" y="-15" type="line"/>
      <point x="248" y="71" type="line"/>
      <point x="591" y="679" type="line"/>
      <point x="738" y="1152" type="line"/>
      <point x="722" y="1166" type="line"/>
      <point x="157" y="1166" type="line"/>
      <point x="127" y="1010" type="line"/>
    </contour>
  </outline>
</glyph>
<glyph name="eight" format="1">
  <advance width="1056"/>
  <unicode hex="0038"/>
  <outline>
    <contour>
      <point x="7.0" y="388" type="qcurve" smooth="yes"/>
      <point x="7.0" y="566"/>
      <point x="235.0" y="809"/>
      <point x="396.0" y="862" type="qcurve"/>
      <point x="529.0" y="768" type="line"/>
      <point x="493.0" y="720"/>
      <point x="456.0" y="533"/>
      <point x="456.0" y="335" type="qcurve" smooth="yes"/>
      <point x="456.0" y="184"/>
      <point x="473.0" y="101"/>
      <point x="504.0" y="101" type="qcurve" smooth="yes"/>
      <point x="535.0" y="101"/>
      <point x="560.0" y="181"/>
      <point x="560.0" y="329" type="qcurve" smooth="yes"/>
      <point x="560.0" y="451"/>
      <point x="511.0" y="584"/>
      <point x="382.0" y="666" type="qcurve" smooth="yes"/>
      <point x="223.0" y="765"/>
      <point x="86" y="967"/>
      <point x="86" y="1149" type="qcurve" smooth="yes"/>
      <point x="86" y="1325"/>
      <point x="329.0" y="1520"/>
      <point x="546.0" y="1520" type="qcurve" smooth="yes"/>
      <point x="760.0" y="1520"/>
      <point x="980" y="1364"/>
      <point x="980" y="1209" type="qcurve" smooth="yes"/>
      <point x="980" y="1069"/>
      <point x="785.0" y="879"/>
      <point x="612.0" y="824" type="qcurve"/>
      <point x="489.0" y="868" type="line"/>
      <point x="536.0" y="925"/>
      <point x="604" y="1088"/>
      <point x="604" y="1235" type="qcurve" smooth="yes"/>
      <point x="604" y="1324"/>
      <point x="569.0" y="1391"/>
      <point x="540.0" y="1391" type="qcurve" smooth="yes"/>
      <point x="511.0" y="1391"/>
      <point x="474" y="1326"/>
      <point x="474" y="1240" type="qcurve" smooth="yes"/>
      <point x="474" y="1134"/>
      <point x="550.0" y="1006"/>
      <point x="706.0" y="923" type="qcurve" smooth="yes"/>
      <point x="859.0" y="846"/>
      <point x="1049.0" y="607"/>
      <point x="1049.0" y="413" type="qcurve" smooth="yes"/>
      <point x="1049.0" y="207"/>
      <point x="790.0" y="-20"/>
      <point x="516.0" y="-20" type="qcurve" smooth="yes"/>
      <point x="245.0" y="-20"/>
      <point x="7.0" y="205"/>
    </contour>
  </outline>
</glyph>
<glyph name="semicolon" format="1">
  <advance width="656"/>
  <unicode hex="003B"/>
  <outline>
    <contour>
      <point x="86.0" y="-252" type="line"/>
      <point x="152.0" y="-215"/>
      <point x="291.0" y="-93"/>
      <point x="337.0" y="-10" type="qcurve"/>
      <point x="210.0" y="-8"/>
      <point x="87.0" y="96"/>
      <point x="87.0" y="173" type="qcurve" smooth="yes"/>
      <point x="87.0" y="240"/>
      <point x="221.0" y="309"/>
      <point x="326.0" y="309" type="qcurve" smooth="yes"/>
      <point x="431.0" y="309"/>
      <point x="565.0" y="245"/>
      <point x="565.0" y="164" type="qcurve" smooth="yes"/>
      <point x="565.0" y="32"/>
      <point x="301.0" y="-264"/>
      <point x="146.0" y="-326" type="qcurve"/>
    </contour>
    <contour>
      <point x="84.0" y="844" type="qcurve" smooth="yes"/>
      <point x="84.0" y="914"/>
      <point x="214.0" y="1029"/>
      <point x="328.0" y="1029" type="qcurve" smooth="yes"/>
      <point x="438.0" y="1029"/>
      <point x="572.0" y="914"/>
      <point x="572.0" y="844" type="qcurve" smooth="yes"/>
      <point x="572.0" y="769"/>
      <point x="428.0" y="698"/>
      <point x="328.0" y="698" type="qcurve" smooth="yes"/>
      <point x="228.0" y="698"/>
      <point x="84.0" y="769"/>
    </contour>
  </outline>
</glyph>
<glyph name="question" format="1">
  <advance width="898"/>
  <unicode hex="003F"/>
  <outline>
    <contour>
      <point x="69.0" y="178" type="qcurve" smooth="yes"/>
      <point x="69.0" y="260"/>
      <point x="190.0" y="369"/>
      <point x="286.0" y="369" type="qcurve" smooth="yes"/>
      <point x="381.0" y="369"/>
      <point x="502.0" y="260"/>
      <point x="502.0" y="178" type="qcurve" smooth="yes"/>
      <point x="502.0" y="98"/>
      <point x="381.0" y="-22"/>
      <point x="286.0" y="-22" type="qcurve" smooth="yes"/>
      <point x="189.0" y="-22"/>
      <point x="69.0" y="98"/>
    </contour>
    <contour>
      <point x="0.0" y="1376" type="line"/>
      <point x="43.0" y="1438"/>
      <point x="215.0" y="1524"/>
      <point x="369.0" y="1524" type="qcurve" smooth="yes"/>
      <point x="607.0" y="1524"/>
      <point x="854.0" y="1312"/>
      <point x="854.0" y="1108" type="qcurve" smooth="yes"/>
      <point x="854.0" y="901"/>
      <point x="644.0" y="689"/>
      <point x="435.0" y="689" type="qcurve" smooth="yes"/>
      <point x="383.0" y="689"/>
      <point x="264.0" y="700"/>
      <point x="240.0" y="706" type="qcurve"/>
      <point x="241.0" y="525" type="line"/>
      <point x="154.0" y="525" type="line"/>
      <point x="150.0" y="657" type="line"/>
      <point x="138.0" y="782" type="line"/>
      <point x="172.0" y="817" type="line"/>
      <point x="190.0" y="811"/>
      <point x="243.0" y="804"/>
      <point x="269.0" y="804" type="qcurve" smooth="yes"/>
      <point x="329.0" y="804"/>
      <point x="395.0" y="917"/>
      <point x="395.0" y="1110" type="qcurve" smooth="yes"/>
      <point x="395.0" y="1299"/>
      <point x="307.0" y="1413"/>
      <point x="233.0" y="1413" type="qcurve" smooth="yes"/>
      <point x="175.0" y="1413"/>
      <point x="76.0" y="1361"/>
      <point x="44.0" y="1321" type="qcurve"/>
    </contour>
  </outline>
</glyph>
<glyph name="A" format="1">
  <advance width="1506"/>
  <unicode hex="0041"/>
  <outline>
    <contour>
      <point x="-25" y="0" type="line"/>
      <point x="-25" y="100" type="line"/>
      <point x="92" y="135" type="line"/>
      <point x="226" y="567" type="line"/>
      <point x="482" y="1508" type="line"/>
      <point x="994" y="1508" type="line"/>
      <point x="1232" y="652" type="line"/>
      <point x="1397" y="135" type="line"/>
      <point x="1509" y="100" type="line"/>
      <point x="1509" y="0" type="line"/>
      <point x="730" y="0" type="line"/>
      <point x="730" y="100" type="line"/>
      <point x="848" y="131" type="line"/>
      <point x="740" y="553" type="line"/>
      <point x="544" y="1214" type="line"/>
      <point x="348" y="566" type="line"/>
      <point x="233" y="130" type="line"/>
      <point x="349" y="100" type="line"/>
      <point x="349" y="0" type="line"/>
    </contour>
    <contour>
      <point x="246" y="448" type="line"/>
      <point x="274" y="567" type="line"/>
      <point x="587" y="557" type="line"/>
      <point x="922" y="568" type="line"/>
      <point x="948" y="448" type="line"/>
    </contour>
  </outline>
</glyph>
<glyph name="D" format="1">
  <advance width="1590"/>
  <unicode hex="0044"/>
  <outline>
    <contour>
      <point x="82" y="0" type="line"/>
      <point x="82" y="100" type="line"/>
      <point x="189" y="135" type="line"/>
      <point x="191" y="754" type="line"/>
      <point x="189" y="1352" type="line"/>
      <point x="82" y="1386" type="line"/>
      <point x="82" y="1500" type="line"/>
      <point x="978" y="1500" type="line" smooth="yes"/>
      <point x="1250" y="1500"/>
      <point x="1597" y="1169"/>
      <point x="1597" y="786" type="qcurve" smooth="yes"/>
      <point x="1597" y="377"/>
      <point x="1233" y="0"/>
      <point x="920" y="0" type="qcurve" smooth="yes"/>
    </contour>
    <contour>
      <point x="690" y="130" type="line"/>
      <point x="705" y="124"/>
      <point x="773" y="112"/>
      <point x="810" y="112" type="qcurve" smooth="yes"/>
      <point x="940" y="112"/>
      <point x="1082" y="345"/>
      <point x="1084" y="761" type="qcurve" smooth="yes"/>
      <point x="1085" y="1167"/>
      <point x="923" y="1375"/>
      <point x="792" y="1375" type="qcurve" smooth="yes"/>
      <point x="767" y="1375"/>
      <point x="706" y="1363"/>
      <point x="690" y="1358" type="qcurve"/>
      <point x="689" y="754" type="line"/>
    </contour>
  </outline>
</glyph>
<glyph name="E" format="1">
  <advance width="1260"/>
  <unicode hex="0045"/>
  <outline>
    <contour>
      <point x="42" y="0" type="line"/>
      <point x="42" y="100" type="line"/>
      <point x="161" y="135" type="line"/>
      <point x="163" y="777" type="line"/>
      <point x="161" y="1352" type="line"/>
      <point x="42" y="1386" type="line"/>
      <point x="42" y="1500" type="line"/>
      <point x="1157" y="1500" type="line"/>
      <point x="1157" y="1171" type="line"/>
      <point x="1051" y="1171" type="line"/>
      <point x="1016" y="1382" type="line"/>
      <point x="716" y="1382" type="line"/>
      <point x="663" y="1357" type="line"/>
      <point x="661" y="783" type="line"/>
      <point x="663" y="133" type="line"/>
      <point x="709" y="108" type="line"/>
      <point x="1066" y="108" type="line"/>
      <point x="1138" y="359" type="line"/>
      <point x="1243" y="359" type="line"/>
      <point x="1205" y="0" type="line"/>
    </contour>
    <contour>
      <point x="414" y="738" type="line"/>
      <point x="414" y="834" type="line"/>
      <point x="946" y="844" type="line"/>
      <point x="972" y="994" type="line"/>
      <point x="1070" y="994" type="line"/>
      <point x="1070" y="570" type="line"/>
      <point x="972" y="570" type="line"/>
      <point x="946" y="728" type="line"/>
    </contour>
  </outline>
</glyph>
<glyph name="O" format="1">
  <advance width="1664"/>
  <unicode hex="004F"/>
  <outline>
    <contour>
      <point x="80" y="745" type="qcurve" smooth="yes"/>
      <point x="80" y="1120"/>
      <point x="481" y="1517"/>
      <point x="875" y="1517" type="qcurve" smooth="yes"/>
      <point x="1268" y="1517"/>
      <point x="1670" y="1133"/>
      <point x="1670" y="756" type="qcurve" smooth="yes"/>
      <point x="1670" y="393"/>
      <point x="1277" y="-21"/>
      <point x="880" y="-21" type="qcurve" smooth="yes"/>
      <point x="487" y="-21"/>
      <point x="80" y="385"/>
    </contour>
    <contour>
      <point x="625" y="771" type="qcurve" smooth="yes"/>
      <point x="625" y="375"/>
      <point x="751" y="109"/>
      <point x="875" y="109" type="qcurve" smooth="yes"/>
      <point x="1006" y="109"/>
      <point x="1125" y="364"/>
      <point x="1125" y="751" type="qcurve" smooth="yes"/>
      <point x="1125" y="1124"/>
      <point x="1000" y="1378"/>
      <point x="876" y="1378" type="qcurve" smooth="yes"/>
      <point x="748" y="1378"/>
      <point x="625" y="1161"/>
    </contour>
  </outline>
</glyph>
<glyph name="P" format="1">
  <advance width="1268"/>
  <unicode hex="0050"/>
  <outline>
    <contour>
      <point x="82" y="0" type="line"/>
      <point x="82" y="100" type="line"/>
      <point x="144" y="137" type="line"/>
      <point x="146" y="754" type="line"/>
      <point x="144" y="1352" type="line"/>
      <point x="82" y="1386" type="line"/>
      <point x="82" y="1500" type="line"/>
      <point x="924" y="1500" type="line" smooth="yes"/>
      <point x="1129" y="1500"/>
      <point x="1320" y="1296"/>
      <point x="1320" y="1081" type="qcurve" smooth="yes"/>
      <point x="1320" y="868"/>
      <point x="1101" y="607"/>
      <point x="872" y="607" type="qcurve" smooth="yes"/>
      <point x="752" y="607"/>
      <point x="633" y="621"/>
      <point x="566" y="636" type="qcurve"/>
      <point x="575" y="737" type="line"/>
      <point x="622" y="727"/>
      <point x="668" y="720"/>
      <point x="699" y="720" type="qcurve" smooth="yes"/>
      <point x="752" y="720"/>
      <point x="813" y="861"/>
      <point x="813" y="1068" type="qcurve" smooth="yes"/>
      <point x="813" y="1261"/>
      <point x="755" y="1382"/>
      <point x="705" y="1382" type="qcurve" smooth="yes"/>
      <point x="664" y="1382" type="line"/>
      <point x="646" y="1365" type="line"/>
      <point x="646" y="764" type="line"/>
      <point x="648" y="132" type="line"/>
      <point x="713" y="100" type="line"/>
      <point x="713" y="0" type="line"/>
    </contour>
  </outline>
</glyph>
<glyph name="S" format="1">
  <advance width="1112"/>
  <unicode hex="0053"/>
  <outline>
    <contour>
      <point x="52" y="1" type="line"/>
      <point x="52" y="438" type="line"/>
      <point x="149" y="438" type="line"/>
      <point x="209" y="170" type="line"/>
      <point x="131" y="1" type="line"/>
    </contour>
    <contour>
      <point x="73" y="1106" type="qcurve" smooth="yes"/>
      <point x="73" y="1299"/>
      <point x="315" y="1511"/>
      <point x="534" y="1511" type="qcurve" smooth="yes"/>
      <point x="690" y="1511"/>
      <point x="885" y="1443"/>
      <point x="941" y="1393" type="qcurve"/>
      <point x="886" y="1278" type="line"/>
      <point x="833" y="1325"/>
      <point x="660" y="1383"/>
      <point x="564" y="1383" type="qcurve" smooth="yes"/>
      <point x="466" y="1383"/>
      <point x="380" y="1323"/>
      <point x="380" y="1258" type="qcurve" smooth="yes"/>
      <point x="380" y="1184"/>
      <point x="484" y="1062"/>
      <point x="690" y="966" type="qcurve" smooth="yes"/>
      <point x="892" y="878"/>
      <point x="1116" y="629"/>
      <point x="1116" y="433" type="qcurve" smooth="yes"/>
      <point x="1116" y="237"/>
      <point x="846" y="-18"/>
      <point x="615" y="-18" type="qcurve" smooth="yes"/>
      <point x="416" y="-18"/>
      <point x="167" y="97"/>
      <point x="78" y="225" type="qcurve"/>
      <point x="175" y="296" type="line"/>
      <point x="228" y="197"/>
      <point x="421" y="106"/>
      <point x="534" y="106" type="qcurve" smooth="yes"/>
      <point x="636" y="106"/>
      <point x="758" y="201"/>
      <point x="758" y="285" type="qcurve" smooth="yes"/>
      <point x="758" y="385"/>
      <point x="636" y="516"/>
      <point x="473" y="597" type="qcurve" smooth="yes"/>
      <point x="266" y="693"/>
      <point x="73" y="927"/>
    </contour>
    <contour>
      <point x="863" y="1319" type="line"/>
      <point x="936" y="1487" type="line"/>
      <point x="1016" y="1487" type="line"/>
      <point x="1016" y="1093" type="line"/>
      <point x="919" y="1093" type="line"/>
    </contour>
  </outline>
</glyph>
<glyph name="U" format="1">
  <advance width="1632"/>
  <unicode hex="0055"/>
  <outline>
    <contour>
      <point x="34" y="1386" type="line"/>
      <point x="34" y="1500" type="line"/>
      <point x="842" y="1500" type="line"/>
      <point x="842" y="1386" type="line"/>
      <point x="688" y="1352" type="line"/>
      <point x="683" y="794" type="line"/>
      <point x="686" y="442" type="line" smooth="yes"/>
      <point x="687" y="274"/>
      <point x="830" y="111"/>
      <point x="1005" y="110" type="qcurve"/>
      <point x="1148" y="111"/>
      <point x="1297" y="276"/>
      <point x="1298" y="457" type="qcurve" smooth="yes"/>
      <point x="1299" y="794" type="line"/>
      <point x="1298" y="1352" type="line"/>
      <point x="1135" y="1386" type="line"/>
      <point x="1135" y="1500" type="line"/>
      <point x="1598" y="1500" type="line"/>
      <point x="1598" y="1386" type="line"/>
      <point x="1440" y="1352" type="line"/>
      <point x="1439" y="794" type="line"/>
      <point x="1441" y="476" type="line" smooth="yes"/>
      <point x="1443" y="232"/>
      <point x="1162.031746031746" y="-25"/>
      <point x="862.031746031746" y="-25" type="qcurve" smooth="yes"/>
      <point x="515.031746031746" y="-25"/>
      <point x="163" y="224"/>
      <point x="172" y="477" type="qcurve" smooth="yes"/>
      <point x="173" y="794" type="line"/>
      <point x="172" y="1352" type="line"/>
    </contour>
  </outline>
</glyph>
<glyph name="W" format="1">
  <advance width="2102"/>
  <unicode hex="0057"/>
  <outline>
    <contour>
      <point x="-12.375" y="1390" type="line"/>
      <point x="-12.375" y="1500" type="line"/>
      <point x="677.625" y="1500" type="line"/>
      <point x="677.625" y="1390" type="line"/>
      <point x="577.625" y="1349" type="line"/>
      <point x="691.625" y="894" type="line"/>
      <point x="815.625" y="414" type="line"/>
      <point x="928.625" y="848" type="line"/>
      <point x="1026.625" y="1239" type="line"/>
      <point x="1109.625" y="1054" type="line"/>
      <point x="1035.625" y="807" type="line"/>
      <point x="855.625" y="-4" type="line"/>
      <point x="418.625" y="-4" type="line"/>
      <point x="239.625" y="786" type="line"/>
      <point x="82.625" y="1351" type="line"/>
    </contour>
    <contour>
      <point x="821.625" y="1394" type="line"/>
      <point x="821.625" y="1500" type="line"/>
      <point x="1484.625" y="1500" type="line"/>
      <point x="1484.625" y="1394" type="line"/>
      <point x="1389.625" y="1353" type="line"/>
      <point x="1498.625" y="906" type="line"/>
      <point x="1625.625" y="418" type="line"/>
      <point x="1748.625" y="896" type="line"/>
      <point x="1856.625" y="1356" type="line"/>
      <point x="1745.625" y="1390" type="line"/>
      <point x="1745.625" y="1500" type="line"/>
      <point x="2122.625" y="1500" type="line"/>
      <point x="2122.625" y="1390" type="line"/>
      <point x="2010.625" y="1351" type="line"/>
      <point x="1872.625" y="861" type="line"/>
      <point x="1680.625" y="-4" type="line"/>
      <point x="1254.625" y="-4" type="line"/>
      <point x="1080.625" y="766" type="line"/>
      <point x="913.625" y="1355" type="line"/>
    </contour>
  </outline>
</glyph>
<glyph name="X" format="1">
  <advance width="1346"/>
  <unicode hex="0058"/>
  <outline>
    <contour>
      <point x="-20" y="0" type="line"/>
      <point x="-20" y="100" type="line"/>
      <point x="72" y="135" type="line"/>
      <point x="543" y="860" type="line"/>
      <point x="686" y="860" type="line"/>
      <point x="1003" y="1357" type="line"/>
      <point x="912" y="1386" type="line"/>
      <point x="912" y="1500" type="line"/>
      <point x="1253" y="1500" type="line"/>
      <point x="1253" y="1386" type="line"/>
      <point x="1159" y="1356" type="line"/>
      <point x="740" y="716" type="line"/>
      <point x="595" y="716" type="line"/>
      <point x="228" y="130" type="line"/>
      <point x="316" y="100" type="line"/>
      <point x="316" y="0" type="line"/>
    </contour>
    <contour>
      <point x="7" y="1386" type="line"/>
      <point x="7" y="1500" type="line"/>
      <point x="742" y="1500" type="line"/>
      <point x="742" y="1386" type="line"/>
      <point x="661" y="1355" type="line"/>
      <point x="893" y="843" type="line"/>
      <point x="1248" y="135" type="line"/>
      <point x="1340" y="100" type="line"/>
      <point x="1340" y="0" type="line"/>
      <point x="584" y="0" type="line"/>
      <point x="584" y="100" type="line"/>
      <point x="674" y="135" type="line"/>
      <point x="415" y="731" type="line"/>
      <point x="89" y="1356" type="line"/>
    </contour>
  </outline>
</glyph>
<glyph name="backslash" format="1">
  <advance width="656"/>
  <unicode hex="005C"/>
  <outline>
    <contour>
      <point x="-5.571428571428569" y="1457" type="line"/>
      <point x="316.42857142857144" y="1547" type="line"/>
      <point x="663.4285714285714" y="-98" type="line"/>
      <point x="341.42857142857144" y="-184" type="line"/>
    </contour>
  </outline>
</glyph>
<glyph name="asciicircum" format="1">
  <advance width="1317"/>
  <unicode hex="005E"/>
  <outline>
    <contour>
      <point x="645" y="1524" type="qcurve" smooth="yes"/>
      <point x="706" y="1524"/>
      <point x="1166" y="1018"/>
      <point x="1212" y="936" type="qcurve" smooth="yes"/>
      <point x="1254" y="865"/>
      <point x="1123" y="785"/>
      <point x="1069" y="832" type="qcurve" smooth="yes"/>
      <point x="946" y="940"/>
      <point x="653" y="1182"/>
      <point x="646" y="1182" type="qcurve" smooth="yes"/>
      <point x="639" y="1182"/>
      <point x="360" y="937"/>
      <point x="251" y="834" type="qcurve" smooth="yes"/>
      <point x="197" y="785"/>
      <point x="68" y="863"/>
      <point x="108" y="935" type="qcurve" smooth="yes"/>
      <point x="150" y="1017"/>
      <point x="582" y="1524"/>
    </contour>
  </outline>
</glyph>
<glyph name="d" format="1">
  <advance width="1207"/>
  <unicode hex="0064"/>
  <outline>
    <contour>
      <point x="68" y="497" type="qcurve" smooth="yes"/>
      <point x="68" y="773"/>
      <point x="311" y="1021"/>
      <point x="498" y="1021" type="qcurve" smooth="yes"/>
      <point x="626" y="1021"/>
      <point x="758" y="943"/>
      <point x="787" y="889" type="qcurve"/>
      <point x="704" y="850" type="line"/>
      <point x="695" y="876"/>
      <point x="662" y="903"/>
      <point x="638" y="903" type="qcurve" smooth="yes"/>
      <point x="600" y="903"/>
      <point x="563" y="793"/>
      <point x="563" y="516" type="qcurve" smooth="yes"/>
      <point x="563" y="242"/>
      <point x="587" y="96"/>
      <point x="630" y="96" type="qcurve" smooth="yes"/>
      <point x="663" y="96"/>
      <point x="700" y="161"/>
      <point x="710" y="213" type="qcurve"/>
      <point x="797" y="186" type="line"/>
      <point x="758" y="95"/>
      <point x="605" y="-9"/>
      <point x="463" y="-9" type="qcurve" smooth="yes"/>
      <point x="291" y="-9"/>
      <point x="68" y="225"/>
    </contour>
    <contour>
      <point x="634" y="1406" type="line"/>
      <point x="634" y="1500" type="line"/>
      <point x="1126" y="1534" type="line"/>
      <point x="1157" y="1534" type="line"/>
      <point x="1185" y="1502" type="line"/>
      <point x="1182" y="467" type="line"/>
      <point x="1191" y="115" type="line"/>
      <point x="1250" y="80" type="line"/>
      <point x="1250" y="0" type="line"/>
      <point x="772" y="0" type="line"/>
      <point x="721" y="60" type="line"/>
      <point x="701" y="135" type="line"/>
      <point x="703" y="466" type="line"/>
      <point x="692" y="1376" type="line"/>
    </contour>
  </outline>
</glyph>
<glyph name="i" format="1">
  <advance width="639"/>
  <unicode hex="0069"/>
  <outline>
    <contour>
      <point x="22.173913043478265" y="0" type="line"/>
      <point x="22.173913043478265" y="80" type="line"/>
      <point x="77.17391304347827" y="115" type="line"/>
      <point x="79.17391304347827" y="527" type="line"/>
      <point x="75.17391304347827" y="855" type="line"/>
      <point x="16.173913043478265" y="885" type="line"/>
      <point x="16.173913043478265" y="979" type="line"/>
      <point x="508.17391304347825" y="1007" type="line"/>
      <point x="553.1739130434783" y="1007" type="line"/>
      <point x="576.1739130434783" y="968" type="line"/>
      <point x="569.1739130434783" y="527" type="line"/>
      <point x="571.1739130434783" y="115" type="line"/>
      <point x="625" y="80" type="line"/>
      <point x="625" y="0" type="line"/>
    </contour>
    <contour>
      <point x="42.173913043478265" y="1304" type="qcurve" smooth="yes"/>
      <point x="42.173913043478265" y="1387"/>
      <point x="180.17391304347825" y="1484"/>
      <point x="308.17391304347825" y="1484" type="qcurve" smooth="yes"/>
      <point x="430.17391304347825" y="1484"/>
      <point x="576.1739130434783" y="1385"/>
      <point x="576.1739130434783" y="1305" type="qcurve" smooth="yes"/>
      <point x="576.1739130434783" y="1224"/>
      <point x="438.17391304347825" y="1161"/>
      <point x="309.17391304347825" y="1161" type="qcurve" smooth="yes"/>
      <point x="189.17391304347825" y="1161"/>
      <point x="42.173913043478265" y="1229"/>
    </contour>
  </outline>
</glyph>
<glyph name="j" format="1">
  <advance width="556"/>
  <unicode hex="006A"/>
  <outline>
    <contour>
      <point x="-30" y="-386" type="line"/>
      <point x="-30" y="-329" type="line"/>
      <point x="41" y="-294" type="line"/>
      <point x="39" y="527" type="line"/>
      <point x="33" y="852" type="line"/>
      <point x="-10" y="882" type="line"/>
      <point x="-10" y="976" type="line"/>
      <point x="465" y="1010" type="line"/>
      <point x="512" y="1010" type="line"/>
      <point x="535" y="971" type="line"/>
      <point x="529" y="527" type="line"/>
      <point x="531" y="-86" type="line" smooth="yes"/>
      <point x="532" y="-275"/>
      <point x="337" y="-418"/>
      <point x="156" y="-418" type="qcurve"/>
    </contour>
    <contour>
      <point x="7" y="1308" type="qcurve" smooth="yes"/>
      <point x="7" y="1391"/>
      <point x="143" y="1482"/>
      <point x="270" y="1482" type="qcurve" smooth="yes"/>
      <point x="391" y="1482"/>
      <point x="536" y="1388"/>
      <point x="536" y="1309" type="qcurve" smooth="yes"/>
      <point x="536" y="1226"/>
      <point x="400" y="1159"/>
      <point x="271" y="1159" type="qcurve" smooth="yes"/>
      <point x="152" y="1159"/>
      <point x="7" y="1231"/>
    </contour>
  </outline>
</glyph>
<glyph name="o" format="1">
  <advance width="1168"/>
  <unicode hex="006F"/>
  <outline>
    <contour>
      <point x="64" y="500" type="qcurve" smooth="yes"/>
      <point x="64" y="767"/>
      <point x="371" y="1022"/>
      <point x="636" y="1022" type="qcurve" smooth="yes"/>
      <point x="902" y="1022"/>
      <point x="1212" y="769"/>
      <point x="1212" y="506" type="qcurve" smooth="yes"/>
      <point x="1212" y="244"/>
      <point x="897" y="-22"/>
      <point x="640" y="-22" type="qcurve" smooth="yes"/>
      <point x="383" y="-22"/>
      <point x="64" y="233"/>
    </contour>
    <contour>
      <point x="570" y="520" type="qcurve" smooth="yes"/>
      <point x="570" y="270"/>
      <point x="591" y="88"/>
      <point x="640" y="88" type="qcurve" smooth="yes"/>
      <point x="687" y="88"/>
      <point x="709" y="243"/>
      <point x="707" y="506" type="qcurve" smooth="yes"/>
      <point x="704" y="768"/>
      <point x="681" y="906"/>
      <point x="637" y="906" type="qcurve" smooth="yes"/>
      <point x="594" y="906"/>
      <point x="570" y="770"/>
    </contour>
  </outline>
</glyph>
<glyph name="q" format="1">
  <advance width="1188"/>
  <unicode hex="0071"/>
  <outline>
    <contour>
      <point x="68" y="497" type="qcurve" smooth="yes"/>
      <point x="68" y="770"/>
      <point x="310" y="1021"/>
      <point x="492" y="1021" type="qcurve" smooth="yes"/>
      <point x="594" y="1021"/>
      <point x="746" y="943"/>
      <point x="779" y="888" type="qcurve"/>
      <point x="702" y="847" type="line"/>
      <point x="690" y="874"/>
      <point x="657" y="901"/>
      <point x="631" y="901" type="qcurve" smooth="yes"/>
      <point x="597" y="901"/>
      <point x="564" y="794"/>
      <point x="564" y="503" type="qcurve" smooth="yes"/>
      <point x="564" y="220"/>
      <point x="590" y="102"/>
      <point x="628" y="102" type="qcurve" smooth="yes"/>
      <point x="661" y="102"/>
      <point x="696" y="165"/>
      <point x="706" y="212" type="qcurve"/>
      <point x="774" y="212" type="line"/>
      <point x="739" y="98"/>
      <point x="575" y="-9"/>
      <point x="439" y="-9" type="qcurve" smooth="yes"/>
      <point x="291" y="-9"/>
      <point x="68" y="222"/>
    </contour>
    <contour>
      <point x="624" y="-416" type="line"/>
      <point x="624" y="-336" type="line"/>
      <point x="688" y="-301" type="line"/>
      <point x="695" y="219" type="line"/>
      <point x="697" y="912" type="line"/>
      <point x="767" y="1003" type="line"/>
      <point x="1234" y="974" type="line"/>
      <point x="1234" y="876" type="line"/>
      <point x="1185" y="861" type="line"/>
      <point x="1178" y="428" type="line"/>
      <point x="1180" y="-301" type="line"/>
      <point x="1232" y="-336" type="line"/>
      <point x="1232" y="-416" type="line"/>
    </contour>
  </outline>
</glyph>
<glyph name="r" format="1">
  <advance width="864"/>
  <unicode hex="0072"/>
  <outline>
    <contour>
      <point x="16" y="0" type="line"/>
      <point x="16" y="80" type="line"/>
      <point x="80" y="115" type="line"/>
      <point x="82" y="527" type="line"/>
      <point x="80" y="850" type="line"/>
      <point x="16" y="880" type="line"/>
      <point x="16" y="974" type="line"/>
      <point x="509" y="1008" type="line"/>
      <point x="544" y="981" type="line"/>
      <point x="569" y="880" type="line"/>
      <point x="566" y="527" type="line"/>
      <point x="569" y="115" type="line"/>
      <point x="638" y="80" type="line"/>
      <point x="638" y="0" type="line"/>
    </contour>
    <contour>
      <point x="511.5882352941177" y="698" type="qcurve"/>
      <point x="477.5882352941177" y="770" type="line"/>
      <point x="492.5882352941177" y="859"/>
      <point x="669.5882352941177" y="1005"/>
      <point x="804.5882352941177" y="1005" type="qcurve" smooth="yes"/>
      <point x="855.5882352941177" y="1005" type="line"/>
      <point x="855.5882352941177" y="703" type="line"/>
      <point x="756.5882352941177" y="703" type="line"/>
      <point x="733.5882352941177" y="875" type="line"/>
      <point x="664.5882352941177" y="875"/>
      <point x="546.5882352941177" y="784"/>
    </contour>
  </outline>
</glyph>
<glyph name="s" format="1">
  <advance width="872"/>
  <unicode hex="0073"/>
  <outline>
    <contour>
      <point x="52" y="0" type="line"/>
      <point x="52" y="329" type="line"/>
      <point x="144" y="329" type="line"/>
      <point x="191" y="118" type="line"/>
      <point x="128" y="0" type="line"/>
    </contour>
    <contour>
      <point x="57" y="744" type="qcurve" smooth="yes"/>
      <point x="57" y="883"/>
      <point x="277" y="1018"/>
      <point x="451" y="1018" type="qcurve" smooth="yes"/>
      <point x="572" y="1018"/>
      <point x="711" y="967"/>
      <point x="773" y="914" type="qcurve"/>
      <point x="760" y="813" type="line"/>
      <point x="704" y="857"/>
      <point x="535" y="914"/>
      <point x="448" y="914" type="qcurve" smooth="yes"/>
      <point x="410" y="914"/>
      <point x="376" y="882"/>
      <point x="376" y="856" type="qcurve" smooth="yes"/>
      <point x="376" y="812"/>
      <point x="443" y="735"/>
      <point x="593" y="677" type="qcurve" smooth="yes"/>
      <point x="754" y="608"/>
      <point x="897" y="434"/>
      <point x="897" y="299" type="qcurve" smooth="yes"/>
      <point x="897" y="150"/>
      <point x="684" y="-14"/>
      <point x="504" y="-14" type="qcurve" smooth="yes"/>
      <point x="344" y="-14"/>
      <point x="152" y="64"/>
      <point x="115" y="120" type="qcurve"/>
      <point x="144" y="230" type="line"/>
      <point x="167" y="173"/>
      <point x="334" y="83"/>
      <point x="440" y="83" type="qcurve" smooth="yes"/>
      <point x="493" y="83"/>
      <point x="540" y="127"/>
      <point x="540" y="171" type="qcurve" smooth="yes"/>
      <point x="540" y="226"/>
      <point x="470" y="295"/>
      <point x="392" y="346" type="qcurve"/>
      <point x="227" y="421"/>
      <point x="57" y="595"/>
    </contour>
    <contour>
      <point x="717" y="886" type="line"/>
      <point x="771" y="1001" type="line"/>
      <point x="855" y="1001" type="line"/>
      <point x="855" y="705" type="line"/>
      <point x="756" y="705" type="line"/>
    </contour>
  </outline>
</glyph>
<glyph name="t" format="1">
  <advance width="612"/>
  <unicode hex="0074"/>
  <outline>
    <contour>
      <point x="-11.862068965517242" y="876" type="line"/>
      <point x="-11.862068965517242" y="970" type="line"/>
      <point x="40.13793103448276" y="1004"/>
      <point x="160" y="1147"/>
      <point x="193" y="1241" type="qcurve"/>
      <point x="490" y="1241" type="line"/>
      <point x="539" y="1179" type="line"/>
      <point x="522" y="527" type="line"/>
      <point x="531" y="144" type="line"/>
      <point x="560" y="117" type="line"/>
      <point x="620" y="117" type="line"/>
      <point x="620" y="37" type="line"/>
      <point x="180" y="-8" type="line"/>
      <point x="90" y="-8"/>
      <point x="34" y="59"/>
      <point x="35" y="100" type="qcurve" smooth="yes"/>
      <point x="42" y="527" type="line"/>
      <point x="42" y="850" type="line"/>
    </contour>
    <contour>
      <point x="399" y="872" type="line"/>
      <point x="403" y="974" type="line"/>
      <point x="620" y="974" type="line"/>
      <point x="620" y="872" type="line"/>
    </contour>
  </outline>
</glyph>
<glyph name="x" format="1">
  <advance width="1043"/>
  <unicode hex="0078"/>
  <outline>
    <contour>
      <point x="16" y="0" type="line"/>
      <point x="16" y="90" type="line"/>
      <point x="69" y="125" type="line"/>
      <point x="370" y="549" type="line"/>
      <point x="565" y="550" type="line"/>
      <point x="815" y="880" type="line"/>
      <point x="767" y="910" type="line"/>
      <point x="767" y="1000" type="line"/>
      <point x="989" y="1000" type="line"/>
      <point x="989" y="910" type="line"/>
      <point x="927" y="875" type="line"/>
      <point x="654" y="504" type="line"/>
      <point x="456" y="503" type="line"/>
      <point x="181" y="120" type="line"/>
      <point x="232" y="90" type="line"/>
      <point x="232" y="0" type="line"/>
    </contour>
    <contour>
      <point x="20" y="910" type="line"/>
      <point x="20" y="1000" type="line"/>
      <point x="655" y="1000" type="line"/>
      <point x="655" y="910" type="line"/>
      <point x="628" y="873" type="line"/>
      <point x="776" y="563" type="line"/>
      <point x="995" y="125" type="line"/>
      <point x="1066" y="90" type="line"/>
      <point x="1066" y="0" type="line"/>
      <point x="382" y="0" type="line"/>
      <point x="382" y="90" type="line"/>
      <point x="439" y="127" type="line"/>
      <point x="269" y="482" type="line"/>
      <point x="71" y="875" type="line"/>
    </contour>
  </outline>
</glyph>
<glyph name="asciitilde" format="1">
  <advance width="1024"/>
  <unicode hex="007E"/>
  <outline>
    <contour>
      <point x="18" y="680" type="line"/>
      <point x="66" y="770"/>
      <point x="274" y="885"/>
      <point x="358" y="885" type="qcurve"/>
      <point x="681" y="770" type="line"/>
      <point x="748" y="770"/>
      <point x="855" y="840"/>
      <point x="887" y="887" type="qcurve"/>
      <point x="1014" y="673" type="line"/>
      <point x="971" y="569"/>
      <point x="770" y="437"/>
      <point x="665" y="437" type="qcurve"/>
      <point x="356" y="549" type="line"/>
      <point x="291" y="549"/>
      <point x="148" y="498"/>
      <point x="93" y="455" type="qcurve"/>
    </contour>
  </outline>
</glyph>
